{
  "accessors": [
    {
      "bufferView": 2,
      "componentType": 5126,
      "count": 30,
      "max": [
        0.5690779089927673,
        0.6282196044921875,
        0.6236174702644348
      ],
      "min": [
        -0.5322017073631287,
        -0.062238749116659164,
        -0.6259992718696594
      ],
      "type": "VEC3"
    },
    {
      "bufferView": 2,
      "byteOffset": 360,
      "componentType": 5126,
      "count": 30,
      "max": [
        0.5035277009010315,
        0.24920937418937683,
        1.0
      ],
      "min": [
        -0.9904116988182068,
        0.0,
        -0.8397011756896973
      ],
      "type": "VEC3"
    },
    {
      "bufferView": 3,
      "componentType": 5126,
      "count": 30,
      "max": [
        1.0,
        0.05859336629509926,
        0.9935641288757324,
        1.0
      ],
      "min": [
        -0.8623471260070801,
        -0.05891996994614601,
        -0.5029159784317017,
        1.0
      ],
      "type": "VEC4"
    },
    {
      "bufferView": 1,
      "componentType": 5126,
      "count": 30,
      "max": [
        1.0,
        0.6500111222267151
      ],
      "min": [
        0.0,
        0.007469772826880217
      ],
      "type": "VEC2"
    },
    {
      "bufferView": 0,
      "componentType": 5125,
      "count": 36,
      "type": "SCALAR"
    },
    {
      "bufferView": 2,
      "byteOffset": 720,
      "componentType": 5126,
      "count": 30,
      "max": [
        0.5,
        0.7865206003189087,
        0.27587929368019104
      ],
      "min": [
        -0.5,
        -0.07230114191770554,
        -0.8738611936569214
      ],
      "type": "VEC3"
    },
    {
      "bufferView": 2,
      "byteOffset": 1080,
      "componentType": 5126,
      "count": 30,
      "max": [
        0.9806665778160095,
        0.1900475025177002,
        1.0
      ],
      "min": [
        -0.9813364148139954,
        -0.11600601673126221,
        -0.47922980785369873
      ],
      "type": "VEC3"
    },
    {
      "bufferView": 3,
      "byteOffset": 480,
      "componentType": 5126,
      "count": 30,
      "max": [
        1.0,
        0.22746841609477997,
        0.9813364744186401,
        1.0
      ],
      "min": [
        -0.49754324555397034,
        -0.19213813543319702,
        -0.9806666374206543,
        1.0
      ],
      "type": "VEC4"
    },
    {
      "bufferView": 1,
      "byteOffset": 240,
      "componentType": 5126,
      "count": 30,
      "max": [
        1.0,
        0.6500111222267151
      ],
      "min": [
        0.0,
        0.007469772826880217
      ],
      "type": "VEC2"
    },
    {
      "bufferView": 0,
      "byteOffset": 144,
      "componentType": 5125,
      "count": 36,
      "type": "SCALAR"
    },
    {
      "bufferView": 2,
      "byteOffset": 1440,
      "componentType": 5126,
      "count": 32,
      "max": [
        0.5,
        0.6466779112815857,
        0.3296850025653839
      ],
      "min": [
        -0.6939650177955627,
        -0.03846263140439987,
        -0.636814296245575
      ],
      "type": "VEC3"
    },
    {
      "bufferView": 2,
      "byteOffset": 1824,
      "componentType": 5126,
      "count": 32,
      "max": [
        0.7281261682510376,
        0.24163709580898285,
        1.0
      ],
      "min": [
        -0.9293614029884338,
        -0.0200461708009243,
        -0.9322264790534973
      ],
      "type": "VEC3"
    },
    {
      "bufferView": 3,
      "byteOffset": 960,
      "componentType": 5126,
      "count": 32,
      "max": [
        1.0,
        0.04301071912050247,
        0.9554319977760315,
        1.0
      ],
      "min": [
        -0.9580093026161194,
        -0.05102933943271637,
        -0.7270073890686035,
        1.0
      ],
      "type": "VEC4"
    },
    {
      "bufferView": 1,
      "byteOffset": 480,
      "componentType": 5126,
      "count": 32,
      "max": [
        1.0,
        0.6500111222267151
      ],
      "min": [
        0.0,
        0.007469772826880217
      ],
      "type": "VEC2"
    },
    {
      "bufferView": 0,
      "byteOffset": 288,
      "componentType": 5125,
      "count": 36,
      "type": "SCALAR"
    },
    {
      "bufferView": 2,
      "byteOffset": 2208,
      "componentType": 5126,
      "count": 186,
      "max": [
        0.2508327066898346,
        0.4075489938259125,
        0.205082505941391
      ],
      "min": [
        -0.22480720281600952,
        -0.05923860892653465,
        -0.14659540355205536
      ],
      "type": "VEC3"
    },
    {
      "bufferView": 2,
      "byteOffset": 4440,
      "componentType": 5126,
      "count": 186,
      "max": [
        0.9723169803619385,
        0.42761850357055664,
        1.0
      ],
      "min": [
        -0.9639983773231506,
        -0.00039737793849781156,
        -0.9309719204902649
      ],
      "type": "VEC3"
    },
    {
      "bufferView": 3,
      "byteOffset": 1472,
      "componentType": 5126,
      "count": 186,
      "max": [
        1.0,
        0.39320966601371765,
        0.9249947667121887,
        1.0
      ],
      "min": [
        -0.9977281093597412,
        -0.37475672364234924,
        -0.9199497699737549,
        1.0
      ],
      "type": "VEC4"
    },
    {
      "bufferView": 1,
      "byteOffset": 736,
      "componentType": 5126,
      "count": 186,
      "max": [
        1.0,
        0.3826141953468323
      ],
      "min": [
        0.9414991140365601,
        0.029078660532832146
      ],
      "type": "VEC2"
    },
    {
      "bufferView": 0,
      "byteOffset": 432,
      "componentType": 5125,
      "count": 192,
      "type": "SCALAR"
    },
    {
      "bufferView": 2,
      "byteOffset": 6672,
      "componentType": 5126,
      "count": 92,
      "max": [
        0.22803080081939697,
        0.4089851975440979,
        0.23313310742378235
      ],
      "min": [
        -0.18299970030784607,
        -0.037965111434459686,
        -0.23158930242061615
      ],
      "type": "VEC3"
    },
    {
      "bufferView": 2,
      "byteOffset": 7776,
      "componentType": 5126,
      "count": 92,
      "max": [
        0.9059932231903076,
        0.7169170379638672,
        1.0
      ],
      "min": [
        -0.9148322939872742,
        -0.1497865915298462,
        -0.759421706199646
      ],
      "type": "VEC3"
    },
    {
      "bufferView": 3,
      "byteOffset": 4448,
      "componentType": 5126,
      "count": 92,
      "max": [
        1.0,
        0.39760997891426086,
        0.9148326516151428,
        1.0
      ],
      "min": [
        -0.9779192209243774,
        -0.4014894962310791,
        -0.905994176864624,
        1.0
      ],
      "type": "VEC4"
    },
    {
      "bufferView": 1,
      "byteOffset": 2224,
      "componentType": 5126,
      "count": 92,
      "max": [
        1.0,
        0.3826141953468323
      ],
      "min": [
        0.9414991140365601,
        0.029078660532832146
      ],
      "type": "VEC2"
    },
    {
      "bufferView": 0,
      "byteOffset": 1200,
      "componentType": 5125,
      "count": 96,
      "type": "SCALAR"
    },
    {
      "bufferView": 2,
      "byteOffset": 8880,
      "componentType": 5126,
      "count": 186,
      "max": [
        0.2508327066898346,
        0.4075489938259125,
        0.205082505941391
      ],
      "min": [
        -0.22480720281600952,
        -0.05923860892653465,
        -0.14659540355205536
      ],
      "type": "VEC3"
    },
    {
      "bufferView": 2,
      "byteOffset": 11112,
      "componentType": 5126,
      "count": 186,
      "max": [
        0.9723169803619385,
        0.42761850357055664,
        1.0
      ],
      "min": [
        -0.9639983773231506,
        -0.00039737793849781156,
        -0.9309719204902649
      ],
      "type": "VEC3"
    },
    {
      "bufferView": 3,
      "byteOffset": 5920,
      "componentType": 5126,
      "count": 186,
      "max": [
        1.0,
        0.39320966601371765,
        0.9249947667121887,
        1.0
      ],
      "min": [
        -0.9977281093597412,
        -0.37475672364234924,
        -0.9199497699737549,
        1.0
      ],
      "type": "VEC4"
    },
    {
      "bufferView": 1,
      "byteOffset": 2960,
      "componentType": 5126,
      "count": 186,
      "max": [
        1.0,
        0.3826141953468323
      ],
      "min": [
        0.9414991140365601,
        0.029078660532832146
      ],
      "type": "VEC2"
    },
    {
      "bufferView": 0,
      "byteOffset": 1584,
      "componentType": 5125,
      "count": 192,
      "type": "SCALAR"
    },
    {
      "bufferView": 2,
      "byteOffset": 13344,
      "componentType": 5126,
      "count": 92,
      "max": [
        0.22803080081939697,
        0.4089851975440979,
        0.23313310742378235
      ],
      "min": [
        -0.18299970030784607,
        -0.037965111434459686,
        -0.23158930242061615
      ],
      "type": "VEC3"
    },
    {
      "bufferView": 2,
      "byteOffset": 14448,
      "componentType": 5126,
      "count": 92,
      "max": [
        0.9059932231903076,
        0.7169170379638672,
        1.0
      ],
      "min": [
        -0.9148322939872742,
        -0.1497865915298462,
        -0.759421706199646
      ],
      "type": "VEC3"
    },
    {
      "bufferView": 3,
      "byteOffset": 8896,
      "componentType": 5126,
      "count": 92,
      "max": [
        1.0,
        0.39760997891426086,
        0.9148326516151428,
        1.0
      ],
      "min": [
        -0.9779192209243774,
        -0.4014894962310791,
        -0.905994176864624,
        1.0
      ],
      "type": "VEC4"
    },
    {
      "bufferView": 1,
      "byteOffset": 4448,
      "componentType": 5126,
      "count": 92,
      "max": [
        1.0,
        0.3826141953468323
      ],
      "min": [
        0.9414991140365601,
        0.029078660532832146
      ],
      "type": "VEC2"
    },
    {
      "bufferView": 0,
      "byteOffset": 2352,
      "componentType": 5125,
      "count": 96,
      "type": "SCALAR"
    },
    {
      "bufferView": 2,
      "byteOffset": 15552,
      "componentType": 5126,
      "count": 186,
      "max": [
        0.2508327066898346,
        0.4075489938259125,
        0.205082505941391
      ],
      "min": [
        -0.22480720281600952,
        -0.05923860892653465,
        -0.14659540355205536
      ],
      "type": "VEC3"
    },
    {
      "bufferView": 2,
      "byteOffset": 17784,
      "componentType": 5126,
      "count": 186,
      "max": [
        0.9723169803619385,
        0.42761850357055664,
        1.0
      ],
      "min": [
        -0.9639983773231506,
        -0.00039737793849781156,
        -0.9309719204902649
      ],
      "type": "VEC3"
    },
    {
      "bufferView": 3,
      "byteOffset": 10368,
      "componentType": 5126,
      "count": 186,
      "max": [
        1.0,
        0.39320966601371765,
        0.9249947667121887,
        1.0
      ],
      "min": [
        -0.9977281093597412,
        -0.37475672364234924,
        -0.9199497699737549,
        1.0
      ],
      "type": "VEC4"
    },
    {
      "bufferView": 1,
      "byteOffset": 5184,
      "componentType": 5126,
      "count": 186,
      "max": [
        1.0,
        0.3826141953468323
      ],
      "min": [
        0.9414991140365601,
        0.029078660532832146
      ],
      "type": "VEC2"
    },
    {
      "bufferView": 0,
      "byteOffset": 2736,
      "componentType": 5125,
      "count": 192,
      "type": "SCALAR"
    },
    {
      "bufferView": 2,
      "byteOffset": 20016,
      "componentType": 5126,
      "count": 92,
      "max": [
        0.22803080081939697,
        0.4089851975440979,
        0.23313310742378235
      ],
      "min": [
        -0.18299970030784607,
        -0.037965111434459686,
        -0.23158930242061615
      ],
      "type": "VEC3"
    },
    {
      "bufferView": 2,
      "byteOffset": 21120,
      "componentType": 5126,
      "count": 92,
      "max": [
        0.9059932231903076,
        0.7169170379638672,
        1.0
      ],
      "min": [
        -0.9148322939872742,
        -0.1497865915298462,
        -0.759421706199646
      ],
      "type": "VEC3"
    },
    {
      "bufferView": 3,
      "byteOffset": 13344,
      "componentType": 5126,
      "count": 92,
      "max": [
        1.0,
        0.39760997891426086,
        0.9148326516151428,
        1.0
      ],
      "min": [
        -0.9779192209243774,
        -0.4014894962310791,
        -0.905994176864624,
        1.0
      ],
      "type": "VEC4"
    },
    {
      "bufferView": 1,
      "byteOffset": 6672,
      "componentType": 5126,
      "count": 92,
      "max": [
        1.0,
        0.3826141953468323
      ],
      "min": [
        0.9414991140365601,
        0.029078660532832146
      ],
      "type": "VEC2"
    },
    {
      "bufferView": 0,
      "byteOffset": 3504,
      "componentType": 5125,
      "count": 96,
      "type": "SCALAR"
    }
  ],
  "asset": {
    "extras": {
      "author": "Nicothin (https://sketchfab.com/juhyt80)",
      "license": "CC-BY-4.0 (http://creativecommons.org/licenses/by/4.0/)",
      "source": "https://sketchfab.com/3d-models/grass-pack-lp-3352f9d646ec4f25b8aeb28e4232814a",
      "title": "Grass Pack LP"
    },
    "generator": "Sketchfab-12.65.0",
    "version": "2.0"
  },
  "bufferViews": [
    {
      "buffer": 0,
      "byteLength": 3888,
      "name": "floatBufferViews",
      "target": 34963
    },
    {
      "buffer": 0,
      "byteLength": 7408,
      "byteOffset": 3888,
      "byteStride": 8,
      "name": "floatBufferViews",
      "target": 34962
    },
    {
      "buffer": 0,
      "byteLength": 22224,
      "byteOffset": 11296,
      "byteStride": 12,
      "name": "floatBufferViews",
      "target": 34962
    },
    {
      "buffer": 0,
      "byteLength": 14816,
      "byteOffset": 33520,
      "byteStride": 16,
      "name": "floatBufferViews",
      "target": 34962
    }
  ],
  "buffers": [
    {
      "byteLength": 48336,
      "uri": "scene.bin"
    }
  ],
  "images": [
    {
      "uri": "textures/yellow_baseColor.png"
    },
    {
      "uri": "textures/yellow_normal.png"
    },
    {
      "uri": "textures/material_baseColor.png"
    },
    {
      "uri": "textures/green_baseColor.png"
    }
  ],
  "materials": [
    {
      "alphaCutoff": 0.4546122041138463,
      "alphaMode": "MASK",
      "doubleSided": true,
      "name": "yellow",
      "normalTexture": {
        "index": 1
      },
      "pbrMetallicRoughness": {
        "baseColorTexture": {
          "index": 0
        },
        "metallicFactor": 0.0
      }
    },
    {
      "alphaCutoff": 0.4546122041138463,
      "alphaMode": "MASK",
      "doubleSided": true,
      "name": "material",
      "normalTexture": {
        "index": 1
      },
      "pbrMetallicRoughness": {
        "baseColorTexture": {
          "index": 2
        },
        "metallicFactor": 0.0
      }
    },
    {
      "alphaCutoff": 0.4546122041138463,
      "alphaMode": "MASK",
      "doubleSided": true,
      "name": "green",
      "normalTexture": {
        "index": 1
      },
      "pbrMetallicRoughness": {
        "baseColorTexture": {
          "index": 3
        },
        "metallicFactor": 0.0
      }
    }
  ],
  "meshes": [
    {
      "name": "green-material",
      "primitives": [
        {
          "attributes": {
            "NORMAL": 1,
            "POSITION": 0,
            "TANGENT": 2,
            "TEXCOORD_0": 3
          },
          "indices": 4,
          "material": 2,
          "mode": 4
        }
      ]
    },
    {
      "name": "yellow-material",
      "primitives": [
        {
          "attributes": {
            "NORMAL": 6,
            "POSITION": 5,
            "TANGENT": 7,
            "TEXCOORD_0": 8
          },
          "indices": 9,
          "material": 0,
          "mode": 4
        }
      ]
    },
    {
      "name": "mid-material",
      "primitives": [
        {
          "attributes": {
            "NORMAL": 11,
            "POSITION": 10,
            "TANGENT": 12,
            "TEXCOORD_0": 13
          },
          "indices": 14,
          "material": 1,
          "mode": 4
        }
      ]
    },
    {
      "name": "green-material",
      "primitives": [
        {
          "attributes": {
            "NORMAL": 16,
            "POSITION": 15,
            "TANGENT": 17,
            "TEXCOORD_0": 18
          },
          "indices": 19,
          "material": 2,
          "mode": 4
        }
      ]
    },
    {
      "name": "green-material",
      "primitives": [
        {
          "attributes": {
            "NORMAL": 21,
            "POSITION": 20,
            "TANGENT": 22,
            "TEXCOORD_0": 23
          },
          "indices": 24,
          "material": 2,
          "mode": 4
        }
      ]
    },
    {
      "name": "mid-material",
      "primitives": [
        {
          "attributes": {
            "NORMAL": 26,
            "POSITION": 25,
            "TANGENT": 27,
            "TEXCOORD_0": 28
          },
          "indices": 29,
          "material": 1,
          "mode": 4
        }
      ]
    },
    {
      "name": "mid-material",
      "primitives": [
        {
          "attributes": {
            "NORMAL": 31,
            "POSITION": 30,
            "TANGENT": 32,
            "TEXCOORD_0": 33
          },
          "indices": 34,
          "material": 1,
          "mode": 4
        }
      ]
    },
    {
      "name": "yellow-material",
      "primitives": [
        {
          "attributes": {
            "NORMAL": 36,
            "POSITION": 35,
            "TANGENT": 37,
            "TEXCOORD_0": 38
          },
          "indices": 39,
          "material": 0,
          "mode": 4
        }
      ]
    },
    {
      "name": "yellow-material",
      "primitives": [
        {
          "attributes": {
            "NORMAL": 41,
            "POSITION": 40,
            "TANGENT": 42,
            "TEXCOORD_0": 43
          },
          "indices": 44,
          "material": 0,
          "mode": 4
        }
      ]
    }
  ],
  "nodes": [
    {
      "children": [
        1
      ],
      "matrix": [
        1.0,
        0.0,
        0.0,
        0.0,
        0.0,
        2.220446049250313e-16,
        -1.0,
        0.0,
        0.0,
        1.0,
        2.220446049250313e-16,
        0.0,
        0.0,
        0.0,
        0.0,
        1.0
      ],
      "name": "Sketchfab_model"
    },
    {
      "children": [
        2,
        4,
        6,
        8,
        10,
        12,
        14,
        16,
        18,
        20,
        22,
        24
      ],
      "name": "Collada visual scene group"
    },
    {
      "children": [
        3
      ],
      "matrix": [
        -0.3564204,
        1.17045,
        -0.06762771,
        0.0,
        -1.640299,
        -0.4251952,
        1.285955,
        0.0,
        0.9648424,
        0.3720261,
        1.353712,
        0.0,
        4.402342,
        1.005454,
        1.36191,
        1.0
      ],
      "name": "Light"
    },
    {
      "name": "Light"
    },
    {
      "children": [
        5
      ],
      "matrix": [
        0.6859207,
        0.7276763,
        0.0,
        0.0,
        -0.3240135,
        0.3054208,
        0.8953956,
        0.0,
        0.6515582,
        -0.6141704,
        0.4452714,
        0.0,
        7.358891,
        -6.925791,
        4.958309,
        1.0
      ],
      "name": "Camera"
    },
    {
      "name": "Camera-camera"
    },
    {
      "children": [
        7
      ],
      "matrix": [
        -0.5910317,
        0.8054112,
        0.04465871,
        0.0,
        -0.005657124,
        -0.05950055,
        0.9982122,
        0.0,
        0.8066285,
        0.5897225,
        0.03972302,
        0.0,
        0.0,
        0.0,
        0.0,
        1.0
      ],
      "name": "green_tall_patch"
    },
    {
      "mesh": 0,
      "name": "green-material"
    },
    {
      "children": [
        9
      ],
      "matrix": [
        0.9937645,
        0.1114997,
        -8.39888e-09,
        0.0,
        -0.02142399,
        0.190946,
        0.9813668,
        0.0,
        0.1094221,
        -0.9752474,
        0.1921441,
        0.0,
        0.1050067,
        2.29331,
        0.08068369,
        1.0
      ],
      "name": "yellow_tall_patch"
    },
    {
      "mesh": 1,
      "name": "yellow-material"
    },
    {
      "children": [
        11
      ],
      "matrix": [
        0.1823885,
        0.9822118,
        0.04465871,
        0.0,
        -0.04724132,
        -0.03661389,
        0.9982122,
        0.0,
        0.982091,
        -0.1841721,
        0.03972302,
        0.0,
        0.2452634,
        1.451468,
        0.0,
        1.0
      ],
      "name": "mid_tall_patch"
    },
    {
      "mesh": 2,
      "name": "mid-material"
    },
    {
      "children": [
        13
      ],
      "matrix": [
        -0.3564204,
        1.17045,
        -0.06762771,
        0.0,
        -1.640299,
        -0.4251952,
        1.285955,
        0.0,
        0.9648424,
        0.3720261,
        1.353712,
        0.0,
        -3.923541,
        1.005454,
        1.36191,
        1.0
      ],
      "name": "Light.001"
    },
    {
      "name": "Light.002"
    },
    {
      "children": [
        15
      ],
      "matrix": [
        0.9563475,
        0.6248588,
        0.01976181,
        0.0,
        -0.1216884,
        0.1624644,
        0.7519076,
        0.0,
        0.6115646,
        -0.9455926,
        0.3032892,
        0.0,
        1.956723,
        -0.04641944,
        -0.04016541,
        1.0
      ],
      "name": "green_alpha_tall_grass.032"
    },
    {
      "mesh": 3,
      "name": "green-material"
    },
    {
      "children": [
        17
      ],
      "matrix": [
        -0.5974907,
        0.5787938,
        -1.46439e-08,
        0.0,
        -0.2325994,
        -0.2401131,
        0.7617353,
        0.0,
        0.5299998,
        0.5471204,
        0.3343005,
        0.0,
        1.104327,
        0.008391679,
        0.01142906,
        1.0
      ],
      "name": "green_alpha_tall_grass.039"
    },
    {
      "mesh": 4,
      "name": "green-material"
    },
    {
      "children": [
        19
      ],
      "matrix": [
        0.9563475,
        0.6248588,
        0.01976181,
        0.0,
        -0.1216884,
        0.1624644,
        0.7519076,
        0.0,
        0.6115646,
        -0.9455926,
        0.3032892,
        0.0,
        1.956723,
        1.228422,
        -0.04016541,
        1.0
      ],
      "name": "green_alpha_tall_grass.000"
    },
    {
      "mesh": 5,
      "name": "mid-material"
    },
    {
      "children": [
        21
      ],
      "matrix": [
        -0.5974907,
        0.5787938,
        -1.46439e-08,
        0.0,
        -0.2325994,
        -0.2401131,
        0.7617353,
        0.0,
        0.5299998,
        0.5471204,
        0.3343005,
        0.0,
        1.104327,
        1.283233,
        0.01142906,
        1.0
      ],
      "name": "green_alpha_tall_grass.001"
    },
    {
      "mesh": 6,
      "name": "mid-material"
    },
    {
      "children": [
        23
      ],
      "matrix": [
        0.9563475,
        0.6248588,
        0.01976181,
        0.0,
        -0.1216884,
        0.1624644,
        0.7519076,
        0.0,
        0.6115646,
        -0.9455926,
        0.3032892,
        0.0,
        1.956723,
        2.611761,
        -0.04016541,
        1.0
      ],
      "name": "green_alpha_tall_grass.002"
    },
    {
      "mesh": 7,
      "name": "yellow-material"
    },
    {
      "children": [
        25
      ],
      "matrix": [
        -0.5974907,
        0.5787938,
        -1.46439e-08,
        0.0,
        -0.2325994,
        -0.2401131,
        0.7617353,
        0.0,
        0.5299998,
        0.5471204,
        0.3343005,
        0.0,
        1.104327,
        2.666572,
        0.01142906,
        1.0
      ],
      "name": "green_alpha_tall_grass.003"
    },
    {
      "mesh": 8,
      "name": "yellow-material"
    }
  ],
  "samplers": [
    {
      "magFilter": 9729,
      "minFilter": 9987,
      "wrapS": 10497,
      "wrapT": 10497
    }
  ],
  "scene": 0,
  "scenes": [
    {
      "name": "Sketchfab_Scene",
      "nodes": [
        0
      ]
    }
  ],
  "textures": [
    {
      "sampler": 0,
      "source": 0
    },
    {
      "sampler": 0,
      "source": 1
    },
    {
      "sampler": 0,
      "source": 2
    },
    {
      "sampler": 0,
      "source": 3
    }
  ]
}
